<?xml version="1.0" encoding="UTF-8" standalone="no"?>
<svg
   version="1.1"
   id="Layer_4"
   x="0px"
   y="0px"
   viewBox="0 0 1599.9999 2560"
   enable-background="new 0 0 2560 1600"
   xml:space="preserve"
   sodipodi:docname="field1.svg"
   width="1600"
   height="2560"
   inkscape:version="1.2.1 (9c6d41e410, 2022-07-14)"
   xmlns:inkscape="http://www.inkscape.org/namespaces/inkscape"
   xmlns:sodipodi="http://sodipodi.sourceforge.net/DTD/sodipodi-0.dtd"
   xmlns="http://www.w3.org/2000/svg"
   xmlns:svg="http://www.w3.org/2000/svg"><defs
   id="defs131" /><sodipodi:namedview
   id="namedview129"
   pagecolor="#ffffff"
   bordercolor="#666666"
   borderopacity="1.0"
   inkscape:showpageshadow="2"
   inkscape:pageopacity="0.0"
   inkscape:pagecheckerboard="0"
   inkscape:deskcolor="#d1d1d1"
   showgrid="false"
   inkscape:zoom="0.52421875"
   inkscape:cx="1282.8614"
   inkscape:cy="1259.9702"
   inkscape:window-width="3440"
   inkscape:window-height="1412"
   inkscape:window-x="0"
   inkscape:window-y="0"
   inkscape:window-maximized="1"
   inkscape:current-layer="Layer_4" />
<g
   id="g126"
   transform="rotate(90,800,800)">
	<rect
   fill="#278406"
   width="2560"
   height="1600"
   id="rect2"
   x="0"
   y="0" />
	<g
   id="g78">
		<rect
   x="20.8333"
   y="24.35"
   fill="#4d8200"
   width="2518.3335"
   height="1551.3"
   id="rect4" />
		<rect
   x="20.8333"
   y="24.35"
   fill="#1a6f05"
   width="68.987"
   height="1551.3"
   id="rect6" />
		<rect
   x="90.339798"
   y="24.35"
   fill="#558907"
   width="68.987"
   height="1551.3"
   id="rect8" />
		<rect
   x="159.8463"
   y="24.35"
   fill="#1a6f05"
   width="68.987"
   height="1551.3"
   id="rect10" />
		<rect
   x="229.3528"
   y="24.35"
   fill="#558907"
   width="68.987"
   height="1551.3"
   id="rect12" />
		<rect
   x="298.85931"
   y="24.35"
   fill="#1a6f05"
   width="68.987"
   height="1551.3"
   id="rect14" />
		<rect
   x="368.36581"
   y="24.35"
   fill="#558907"
   width="68.987"
   height="1551.3"
   id="rect16" />
		<rect
   x="437.87231"
   y="24.35"
   fill="#1a6f05"
   width="68.987"
   height="1551.3"
   id="rect18" />
		<rect
   x="507.37881"
   y="24.35"
   fill="#558907"
   width="68.987"
   height="1551.3"
   id="rect20" />
		<rect
   x="576.88538"
   y="24.35"
   fill="#1a6f05"
   width="68.987"
   height="1551.3"
   id="rect22" />
		<rect
   x="646.39178"
   y="24.35"
   fill="#558907"
   width="68.987"
   height="1551.3"
   id="rect24" />
		<rect
   x="715.89832"
   y="24.35"
   fill="#1a6f05"
   width="68.987"
   height="1551.3"
   id="rect26" />
		<rect
   x="785.40479"
   y="24.35"
   fill="#558907"
   width="68.987"
   height="1551.3"
   id="rect28" />
		<rect
   x="854.91138"
   y="24.35"
   fill="#1a6f05"
   width="68.987"
   height="1551.3"
   id="rect30" />
		<rect
   x="924.41779"
   y="24.35"
   fill="#558907"
   width="68.987"
   height="1551.3"
   id="rect32" />
		<rect
   x="993.92432"
   y="24.35"
   fill="#1a6f05"
   width="68.987"
   height="1551.3"
   id="rect34" />
		<rect
   x="1063.4308"
   y="24.35"
   fill="#558907"
   width="68.987"
   height="1551.3"
   id="rect36" />
		<rect
   x="1132.9373"
   y="24.35"
   fill="#1a6f05"
   width="68.987"
   height="1551.3"
   id="rect38" />
		<rect
   x="1202.4438"
   y="24.35"
   fill="#558907"
   width="68.987"
   height="1551.3"
   id="rect40" />
		<rect
   x="1271.9503"
   y="24.35"
   fill="#1a6f05"
   width="68.987"
   height="1551.3"
   id="rect42" />
		<rect
   x="1341.4568"
   y="24.35"
   fill="#558907"
   width="68.987"
   height="1551.3"
   id="rect44" />
		<rect
   x="1410.9633"
   y="24.35"
   fill="#1a6f05"
   width="68.987"
   height="1551.3"
   id="rect46" />
		<rect
   x="1480.4698"
   y="24.35"
   fill="#558907"
   width="68.987"
   height="1551.3"
   id="rect48" />
		<rect
   x="1549.9763"
   y="24.35"
   fill="#1a6f05"
   width="68.987"
   height="1551.3"
   id="rect50" />
		<rect
   x="1619.4828"
   y="24.35"
   fill="#558907"
   width="68.987"
   height="1551.3"
   id="rect52" />
		<rect
   x="1688.9893"
   y="24.35"
   fill="#1a6f05"
   width="68.987"
   height="1551.3"
   id="rect54" />
		<rect
   x="1758.4958"
   y="24.35"
   fill="#558907"
   width="68.987"
   height="1551.3"
   id="rect56" />
		<rect
   x="1828.0023"
   y="24.35"
   fill="#1a6f05"
   width="68.987"
   height="1551.3"
   id="rect58" />
		<rect
   x="1897.5088"
   y="24.35"
   fill="#558907"
   width="68.987"
   height="1551.3"
   id="rect60" />
		<rect
   x="1967.0153"
   y="24.35"
   fill="#1a6f05"
   width="68.987"
   height="1551.3"
   id="rect62" />
		<rect
   x="2036.5219"
   y="24.35"
   fill="#558907"
   width="68.987"
   height="1551.3"
   id="rect64" />
		<rect
   x="2106.0283"
   y="24.35"
   fill="#1a6f05"
   width="68.987"
   height="1551.3"
   id="rect66" />
		<rect
   x="2175.5349"
   y="24.35"
   fill="#558907"
   width="68.987"
   height="1551.3"
   id="rect68" />
		<rect
   x="2245.0415"
   y="24.35"
   fill="#1a6f05"
   width="68.987"
   height="1551.3"
   id="rect70" />
		<rect
   x="2314.5479"
   y="24.35"
   fill="#558907"
   width="68.987"
   height="1551.3"
   id="rect72" />
		<rect
   x="2384.0544"
   y="24.35"
   fill="#1a6f05"
   width="68.987"
   height="1551.3"
   id="rect74" />
		<rect
   x="2453.5608"
   y="24.35"
   fill="#558907"
   width="81.707497"
   height="1551.3"
   id="rect76" />
	</g>
	<g
   id="g124">
		<g
   id="g100">
			<rect
   x="26"
   y="26"
   fill="none"
   stroke="#ffffff"
   stroke-width="5.6591"
   stroke-miterlimit="10"
   width="1254"
   height="1544"
   id="rect80" />
			<path
   fill="none"
   stroke="#ffffff"
   stroke-width="8"
   stroke-miterlimit="10"
   d="M 1280,1570 V 26 Z"
   id="path82" />
			<polyline
   fill="none"
   stroke="#ffffff"
   stroke-width="8"
   stroke-miterlimit="10"
   points="26,1271 461,1271 461,328 26,328    "
   id="polyline84" />
			<polyline
   fill="none"
   stroke="#ffffff"
   stroke-width="8"
   stroke-miterlimit="10"
   points="26,559 181,559 181,1039 26,1039    "
   id="polyline86" />
			<path
   fill="none"
   stroke="#ffffff"
   stroke-width="8"
   stroke-miterlimit="10"
   d="m 461,612 c 174,21 232,308 0,379"
   id="path88" />
			<path
   fill="none"
   stroke="#ffffff"
   stroke-width="8.1713"
   stroke-miterlimit="10"
   d="m 1279,563 c -131.72,0 -238.5,106.7801 -238.5,238.5 0,131.7199 106.78,238.5 238.5,238.5"
   id="path90" />
			<path
   fill="#ffffff"
   stroke="#ffffff"
   stroke-width="2"
   stroke-miterlimit="10"
   d="m 1280,782 c -9.9412,0 -18,8.0589 -18,18 0,9.9411 8.0588,18 18,18"
   id="path92" />
			<path
   fill="none"
   stroke="#ffffff"
   stroke-width="5.6591"
   stroke-miterlimit="10"
   d="m 25.75,1527.25 c 23.6311,3.5717 36.4116,17.5588 37,43.25"
   id="path94" />
			<path
   fill="none"
   stroke="#ffffff"
   stroke-width="5.6591"
   stroke-miterlimit="10"
   d="M 25.6666,65.8333 C 47.3918,64.3687 60.5861,51.7107 63.8334,26"
   id="path96" />
			<circle
   fill="#ffffff"
   stroke="#ffffff"
   stroke-width="2"
   stroke-miterlimit="10"
   cx="290.5"
   cy="798.25"
   r="19"
   id="circle98" />
		</g>
		<g
   id="g122">
			
				<rect
   x="1282.6666"
   y="26"
   fill="none"
   stroke="#ffffff"
   stroke-width="5.6591"
   stroke-miterlimit="10"
   width="1254"
   height="1544"
   id="rect102" />
			<path
   fill="none"
   stroke="#ffffff"
   stroke-width="8"
   stroke-miterlimit="10"
   d="M 1282.6666,1570 V 26 Z"
   id="path104" />
			<polyline
   fill="none"
   stroke="#ffffff"
   stroke-width="8"
   stroke-miterlimit="10"
   points="2536.6667,1271 2101.6667,1271      2101.6667,328 2536.6667,328    "
   id="polyline106" />
			<polyline
   fill="none"
   stroke="#ffffff"
   stroke-width="8"
   stroke-miterlimit="10"
   points="2536.6667,559 2381.6667,559      2381.6667,1039 2536.6667,1039    "
   id="polyline108" />
			<path
   fill="none"
   stroke="#ffffff"
   stroke-width="8"
   stroke-miterlimit="10"
   d="m 2101.6667,612 c -174.0001,21 -232.0001,308 0,379"
   id="path110" />
			<path
   fill="none"
   stroke="#ffffff"
   stroke-width="8.1713"
   stroke-miterlimit="10"
   d="m 1283.6666,563 c 131.72,0 238.5,106.7801 238.5,238.5 0,131.7199 -106.78,238.5 -238.5,238.5"
   id="path112" />
			<path
   fill="#ffffff"
   stroke="#ffffff"
   stroke-width="2"
   stroke-miterlimit="10"
   d="m 1282.6666,782 c 9.9412,0 18,8.0589 18,18 0,9.9411 -8.0588,18 -18,18"
   id="path114" />
			<path
   fill="none"
   stroke="#ffffff"
   stroke-width="5.6591"
   stroke-miterlimit="10"
   d="m 2536.9167,1527.25 c -23.6311,3.5717 -36.4116,17.559 -37,43.25"
   id="path116" />
			<path
   fill="none"
   stroke="#ffffff"
   stroke-width="5.6591"
   stroke-miterlimit="10"
   d="M 2537,65.8333 C 2515.2749,64.3687 2502.0806,51.7107 2498.8333,26"
   id="path118" />
			<circle
   fill="#ffffff"
   stroke="#ffffff"
   stroke-width="2"
   stroke-miterlimit="10"
   cx="2272.1667"
   cy="798.25"
   r="19"
   id="circle120" />
		</g>
	</g>
</g>
</svg>
