<?xml version="1.0" encoding="UTF-8" standalone="no"?>
<svg
   id="Layer_1"
   data-name="Layer 1"
   viewBox="0 0 449.4 96.82"
   version="1.1"
   sodipodi:docname="RefereeReports_Logo_white_over_transparent.svg"
   inkscape:export-filename="/home/dom/refereereports/RefereeReports_Logo_Black_Final.png"
   inkscape:export-xdpi="96"
   inkscape:export-ydpi="96"
   width="449.39999"
   height="96.82"
   inkscape:version="1.1.1 (3bf5ae0d25, 2021-09-20, custom)"
   xmlns:inkscape="http://www.inkscape.org/namespaces/inkscape"
   xmlns:sodipodi="http://sodipodi.sourceforge.net/DTD/sodipodi-0.dtd"
   xmlns="http://www.w3.org/2000/svg"
   xmlns:svg="http://www.w3.org/2000/svg">
  <defs
     id="defs33" />
  <sodipodi:namedview
     id="namedview31"
     pagecolor="#ffffff"
     bordercolor="#666666"
     borderopacity="1.0"
     inkscape:pageshadow="2"
     inkscape:pageopacity="0.0"
     inkscape:pagecheckerboard="0"
     showgrid="false"
     height="96.82px"
     inkscape:zoom="4.1696328"
     inkscape:cx="223.52088"
     inkscape:cy="72.548355"
     inkscape:window-width="3440"
     inkscape:window-height="1412"
     inkscape:window-x="0"
     inkscape:window-y="0"
     inkscape:window-maximized="1"
     inkscape:current-layer="Layer_1" />
  <g
     inkscape:groupmode="layer"
     id="layer1"
     inkscape:label="Layer 1">
    <path
       d="m 94.3,214.28 c 6.93,0 8.78,3.32 7,9 -1.75,5.38 -5.45,8.43 -12.66,8.43 H 74.69 l -0.69,2.1 c -0.75,2.33 0,4 3.18,4 h 17.89 l -1.85,5.71 h -17.9 c -7.31,0 -8.86,-4.1 -7.06,-9.64 l 3.24,-10 c 1.8,-5.54 6,-9.64 13.33,-9.64 z m -18.12,12.8 h 13.74 c 3.16,0 4.75,-1.33 5.46,-3.49 0.71,-2.16 -0.09,-3.66 -3,-3.66 H 83 a 5.68,5.68 0 0 0 -5.8,4 z"
       id="path4"
       style="fill:#ffffff"
       transform="translate(-25.3,-201.59)" />
    <path
       d="m 112.42,214.28 0.84,-2.61 c 2.49,-7.64 5.89,-10.08 11.92,-10.08 h 5.27 L 128.7,207 h -4 c -2.77,0 -4.3,1.11 -5.36,4.38 l -1,2.94 h 8.09 l -1.84,5.65 h -8.09 l -7.67,23.6 h -5.93 l 7.67,-23.6 h -4 l 1.84,-5.65 z"
       id="path6"
       style="fill:#ffffff"
       transform="translate(-25.3,-201.59)" />
    <path
       d="m 151.2,214.28 c 6.93,0 8.78,3.32 7,9 -1.75,5.38 -5.45,8.43 -12.66,8.43 h -13.9 l -0.69,2.1 c -0.75,2.33 0,4 3.18,4 H 152 l -1.85,5.71 h -17.9 c -7.31,0 -8.86,-4.1 -7.06,-9.64 l 3.24,-10 c 1.8,-5.54 6,-9.64 13.33,-9.64 z m -18.12,12.8 h 13.74 c 3.16,0 4.75,-1.33 5.46,-3.49 0.71,-2.16 -0.09,-3.66 -3,-3.66 h -9.42 a 5.68,5.68 0 0 0 -5.8,4 z"
       id="path8"
       style="fill:#ffffff"
       transform="translate(-25.3,-201.59)" />
    <path
       d="m 188.16,214.28 -1.84,5.65 H 176 c -2.61,0 -4.17,1.22 -5,3.77 l -6.44,19.83 h -5.87 l 6.73,-20.72 c 1.91,-5.87 4.93,-8.53 10.69,-8.53 z"
       id="path10"
       style="fill:#ffffff"
       transform="translate(-25.3,-201.59)" />
    <path
       d="m 213,214.28 c 6.92,0 8.78,3.32 6.94,9 -1.74,5.38 -5.45,8.43 -12.65,8.43 h -13.93 l -0.68,2.1 c -0.76,2.33 0,4 3.17,4 h 17.9 l -1.86,5.71 H 194 c -7.31,0 -8.86,-4.1 -7.06,-9.64 l 3.24,-10 c 1.8,-5.54 6,-9.64 13.32,-9.64 z m -18.12,12.8 h 13.72 c 3.16,0 4.75,-1.33 5.45,-3.49 0.7,-2.16 -0.08,-3.66 -3,-3.66 h -9.42 a 5.68,5.68 0 0 0 -5.81,4 z"
       id="path12"
       style="fill:#ffffff"
       transform="translate(-25.3,-201.59)" />
    <path
       d="m 249.1,214.28 c 6.93,0 8.78,3.32 7,9 -1.75,5.38 -5.45,8.43 -12.66,8.43 h -13.9 l -0.69,2.1 c -0.75,2.33 0,4 3.18,4 H 474.7 l -1.86,5.71 H 230.12 c -7.31,0 -8.86,-4.1 -7.06,-9.64 l 3.24,-10 c 1.8,-5.54 6,-9.64 13.33,-9.64 z m -18.1,12.8 h 13.74 c 3.16,0 4.76,-1.33 5.46,-3.49 0.7,-2.16 -0.09,-3.66 -3,-3.66 h -9.42 a 5.68,5.68 0 0 0 -5.8,4 z"
       transform="translate(-25.3,-201.59)"
       id="path14"
       style="fill:#ffffff" />
    <path
       d="m 272.32,249.27 c 8.42,0 10.33,5.2 8.38,11.19 a 16.85,16.85 0 0 1 -11.57,11.25 l 3.83,15 h -7.25 l -3.84,-14.47 h -9.75 a 1.21,1.21 0 0 0 -1.25,0.95 l -4.39,13.52 h -6.54 l 4.81,-14.8 c 1.37,-4.21 3.7,-5.93 7.8,-5.93 h 14.57 a 7.19,7.19 0 0 0 6.9,-5.2 c 0.86,-2.66 0,-4.94 -3.61,-4.94 H 25.3 l 2.12,-6.53 z"
       id="path16"
       style="fill:#ffffff"
       transform="translate(-25.3,-201.59)" />
    <path
       d="m 305.85,257.41 c 6.93,0 8.78,3.33 6.95,9 -1.75,5.37 -5.46,8.42 -12.66,8.42 h -13.91 l -0.68,2.1 c -0.76,2.33 0,4 3.17,4 h 17.9 l -1.85,5.71 h -17.9 c -7.31,0 -8.86,-4.1 -7.06,-9.65 l 3.24,-10 c 1.8,-5.54 6,-9.64 13.33,-9.64 z m -18.12,12.8 h 13.74 c 3.16,0 4.75,-1.33 5.46,-3.49 0.71,-2.16 -0.09,-3.66 -3,-3.66 h -9.42 a 5.67,5.67 0 0 0 -5.8,4.05 z"
       id="path18"
       style="fill:#ffffff"
       transform="translate(-25.3,-201.59)" />
    <path
       d="m 341.64,257.41 c 7.76,0 11.09,4.77 7.88,14.63 -3.21,9.86 -9.63,14.63 -17.38,14.63 h -13 l -3.81,11.74 h -5.88 l 9.26,-28.48 c 2.73,-8.42 7.78,-12.52 14.81,-12.52 z M 321,281 h 12.35 c 5.1,0 8.16,-2.61 10.21,-8.92 2.05,-6.31 0.7,-9 -4.39,-9 h -5.77 c -4.76,0 -7.27,2.11 -8.91,7.15 z"
       id="path20"
       style="fill:#ffffff"
       transform="translate(-25.3,-201.59)" />
    <path
       d="m 378.76,257.41 c 7.76,0 11.14,4.77 7.94,14.63 -3.2,9.86 -9.69,14.63 -17.44,14.63 h -6.15 c -7.81,0 -11.14,-4.77 -7.94,-14.63 3.2,-9.86 9.63,-14.63 17.44,-14.63 z m -7.43,5.65 c -5.1,0 -8.18,2.66 -10.23,9 -2.05,6.34 -0.68,8.92 4.42,8.92 h 5 c 5,0 8.16,-2.61 10.21,-8.92 2.05,-6.31 0.64,-9 -4.4,-9 z"
       id="path22"
       style="fill:#ffffff"
       transform="translate(-25.3,-201.59)" />
    <path
       d="m 418.38,257.41 -1.84,5.65 h -10.3 c -2.61,0 -4.17,1.22 -5,3.77 l -6.44,19.84 h -5.87 l 6.73,-20.73 c 1.91,-5.87 4.93,-8.53 10.69,-8.53 z"
       transform="translate(-25.3,-201.59)"
       id="path24"
       style="fill:#ffffff" />
    <path
       d="m 426.3,257.41 2.81,-8.24 H 435 l -2.81,8.24 h 8.09 l -1.84,5.65 h -8.09 l -4.5,13.85 c -1.06,3.27 -0.26,4.38 2.51,4.38 h 4.05 l -1.75,5.38 h -5.26 c -6,0 -7.85,-2.44 -5.37,-10.09 l 4.39,-13.52 h -4 l 1.84,-5.65 z"
       transform="translate(-25.3,-201.59)"
       id="path26"
       style="fill:#ffffff" />
    <path
       d="m 469.4,257.41 -1.83,5.65 h -15.18 c -2.72,0 -4.19,1.11 -4.91,3.33 -0.66,2.05 -0.14,3.15 3.13,3.15 h 6.87 c 8.09,0 8.94,3.72 7.46,8.26 -1.69,5.21 -5.6,8.87 -12.47,8.87 h -17 l 1.85,-5.71 h 17 c 2.71,0 4.13,-0.94 4.87,-3.22 0.74,-2.28 -0.16,-3.26 -3.1,-3.26 h -6.92 c -8.09,0 -8.77,-4.05 -7.31,-8.54 1.71,-5.26 5.48,-8.53 12.3,-8.53 z"
       transform="translate(-25.3,-201.59)"
       id="path28"
       style="fill:#ffffff" />
    <path
       d="m 60.77,206.13 c 8.42,0 10.33,5.21 8.38,11.19 a 16.81,16.81 0 0 1 -11.57,11.25 l 3.83,15 h -7.25 l -3.84,-14.46 h -9.75 a 1.21,1.21 0 0 0 -1.25,0.94 l -4.39,13.52 -6.44,-0.29 1.77,-5.45 v 0 l 2.93,-9 c 1.37,-4.21 3.7,-5.93 7.8,-5.93 h 14.58 a 7.19,7.19 0 0 0 6.9,-5.21 c 0.86,-2.66 0,-4.93 -3.61,-4.93 H 38.37 l 2.12,-6.54 z"
       transform="translate(-25.3,-201.59)"
       id="path2"
       style="fill:#ffffff" />
  </g>
</svg>
